<?xml version="1.0" standalone="no"?>
<!DOCTYPE svg PUBLIC "-//W3C//DTD SVG 20010904//EN"
 "http://www.w3.org/TR/2001/REC-SVG-20010904/DTD/svg10.dtd">
<svg version="1.0" xmlns="http://www.w3.org/2000/svg"
 width="225.000000pt" height="225.000000pt" viewBox="0 0 225.000000 225.000000"
 preserveAspectRatio="xMidYMid meet">
<metadata>
Created by potrace 1.16, written by Peter Selinger 2001-2019
</metadata>
<g transform="translate(0.000000,225.000000) scale(0.100000,-0.100000)"
fill="#000000" stroke="none">
<path d="M982 1938 c-18 -18 -14 -56 7 -68 11 -5 33 -10 50 -10 30 0 31 -1 31
-45 0 -40 -3 -45 -22 -45 -44 0 -155 -33 -233 -70 -160 -75 -279 -191 -360
-353 -55 -108 -64 -150 -40 -177 10 -11 28 -20 41 -20 25 0 54 24 54 45 0 7
20 53 44 101 165 328 531 455 856 297 105 -51 233 -179 283 -284 46 -95 67
-183 67 -284 0 -260 -173 -504 -426 -601 -90 -35 -246 -44 -347 -20 -167 39
-341 172 -418 319 l-19 37 34 0 c19 0 38 5 42 11 10 17 -230 253 -250 246 -14
-6 -16 -30 -16 -176 0 -111 4 -172 11 -177 6 -3 23 6 38 20 15 14 30 26 34 26
4 0 16 -17 26 -39 59 -115 203 -250 336 -316 114 -56 200 -76 329 -76 322 1
599 212 708 536 20 61 23 89 23 215 0 133 -3 152 -28 225 -39 110 -96 204
-179 291 -70 73 -70 74 -54 99 19 28 20 29 46 15 20 -11 47 11 35 30 -11 18
-128 100 -142 100 -22 0 -27 -29 -8 -50 16 -18 16 -20 0 -48 l-17 -29 -69 34
c-37 19 -109 44 -159 56 l-90 22 0 42 c0 42 1 43 33 43 18 0 38 5 45 12 17 17
15 65 -4 72 -30 12 -279 7 -292 -6z"/>
<path d="M981 1564 c-187 -50 -347 -212 -396 -401 -8 -31 -15 -70 -15 -85 0
-26 2 -27 57 -30 47 -2 58 -6 61 -22 5 -26 -15 -36 -70 -36 -47 0 -48 -1 -48
-31 0 -24 15 -46 71 -105 75 -80 85 -108 41 -130 l-23 -11 35 -42 c50 -59 111
-108 178 -142 62 -31 155 -59 200 -59 26 0 27 2 30 58 3 53 5 57 28 57 23 0
25 -4 28 -58 3 -56 3 -57 33 -57 46 0 174 46 234 85 135 86 234 239 251 390
l7 55 -57 0 c-41 0 -58 4 -62 15 -11 27 16 45 67 45 57 0 59 7 34 103 -50 191
-210 352 -401 402 -99 26 -104 24 -104 -39 0 -35 -5 -58 -15 -66 -26 -22 -45
5 -45 66 l0 54 -32 -1 c-18 0 -57 -7 -87 -15z m-40 -339 c124 -90 149 -105
182 -105 53 0 97 -43 97 -95 0 -51 -44 -95 -95 -95 -44 0 -95 45 -95 84 0 20
-29 52 -135 148 -142 129 -161 160 -104 167 4 1 71 -46 150 -104z"/>
</g>
</svg>
